<svg width="256" height="256" viewBox="0 0 256 256" fill="none" xmlns="http://www.w3.org/2000/svg">
<rect width="256" height="256" rx="24" fill="#F8FAFC"/>
<g clip-path="url(#clip0_3037_67)">
<path d="M209.773 44.3167L208.194 50.2122M211.931 48.0543L206.036 46.4746M180.662 58.6323L179.872 61.5801M181.741 60.5011L178.793 59.7112M190.005 58.7661C190.01 58.2208 189.869 57.6841 189.596 57.2118C189.324 56.7395 188.929 56.3489 188.455 56.0806L180.037 51.3261C179.894 51.241 179.784 51.1117 179.721 50.9578C179.659 50.804 179.648 50.634 179.691 50.4736C179.734 50.3132 179.828 50.1713 179.959 50.0692C180.09 49.9672 180.251 49.9107 180.417 49.9082L190.084 49.9979C190.63 50.0031 191.166 49.8621 191.638 49.5897C192.11 49.3173 192.501 48.9234 192.769 48.4489L197.524 40.0314C197.609 39.8881 197.738 39.7766 197.892 39.7137C198.047 39.6508 198.217 39.6401 198.378 39.6832C198.539 39.7263 198.681 39.8209 198.783 39.9524C198.885 40.0839 198.942 40.2452 198.943 40.4117L198.851 50.0784C198.846 50.6237 198.987 51.1605 199.259 51.6327C199.532 52.105 199.926 52.4956 200.401 52.7639L208.819 57.517C208.963 57.6015 209.075 57.731 209.139 57.8855C209.202 58.04 209.213 58.211 209.17 58.3723C209.127 58.5336 209.032 58.6763 208.899 58.7784C208.767 58.8806 208.605 58.9366 208.438 58.9378L198.772 58.8451C198.226 58.84 197.69 58.9812 197.217 59.2539C196.745 59.5265 196.355 59.9208 196.086 60.3956L191.332 68.8131C191.247 68.9564 191.117 69.068 190.963 69.1308C190.809 69.1937 190.639 69.2044 190.478 69.1613C190.317 69.1182 190.175 69.0237 190.073 68.8921C189.97 68.7606 189.914 68.5993 189.912 68.4328L190.005 58.7661Z" stroke="#475569" stroke-width="3.05176" stroke-linecap="round" stroke-linejoin="round"/>
</g>
<path d="M157.472 178.36C162.603 179.469 165.168 182.035 165.168 186.056C159.899 195.624 153.451 203.389 145.824 209.352C138.197 215.315 130.987 219.267 124.192 221.208C117.397 223.149 110.395 224.12 103.184 224.12C86.8213 224.12 73.0933 217.88 62 205.4C50.9067 192.92 45.36 174.755 45.36 150.904C45.36 124.28 52.224 101.608 65.952 82.888C72.7467 73.8747 81.4133 66.7333 91.952 61.464C102.629 56.056 114.901 53.352 128.768 53.352C142.773 53.352 153.381 57.096 160.592 64.584C167.941 71.9333 171.616 80.6693 171.616 90.792C171.616 100.776 168.843 108.957 163.296 115.336C157.749 121.576 150.539 124.696 141.664 124.696C138.613 124.696 135.077 124.141 131.056 123.032C133.968 119.427 136.533 114.296 138.752 107.64C140.971 100.984 142.08 94.6747 142.08 88.712C142.08 82.7493 140.693 77.896 137.92 74.152C135.147 70.408 130.779 68.536 124.816 68.536C115.664 68.536 107.413 72.7653 100.064 81.224C92.7147 89.6827 87.2373 100.083 83.632 112.424C80.0267 124.765 78.224 137.523 78.224 150.696C78.224 168.445 81.6907 181.896 88.624 191.048C95.5573 200.2 104.432 204.776 115.248 204.776C122.043 204.776 129.115 202.488 136.464 197.912C143.813 193.336 150.816 186.819 157.472 178.36Z" fill="#334155"/>
<path d="M164.128 166.843C168.864 167.867 171.232 170.235 171.232 173.947C166.368 182.779 160.416 189.947 153.376 195.451C146.336 200.955 139.68 204.603 133.408 206.395C127.136 208.187 120.672 209.083 114.016 209.083C98.912 209.083 86.24 203.323 76 191.803C65.76 180.283 60.64 163.515 60.64 141.499C60.64 116.923 66.976 95.9951 79.648 78.7151C85.92 70.3951 93.92 63.8031 103.648 58.9391C113.504 53.9471 124.832 51.4511 137.632 51.4511C150.56 51.4511 160.352 54.9071 167.008 61.8191C173.792 68.6031 177.184 76.6671 177.184 86.0111C177.184 95.2271 174.624 102.779 169.504 108.667C164.384 114.427 157.728 117.307 149.536 117.307C146.72 117.307 143.456 116.795 139.744 115.771C142.432 112.443 144.8 107.707 146.848 101.563C148.896 95.4191 149.92 89.5951 149.92 84.0911C149.92 78.5871 148.64 74.1071 146.08 70.6511C143.52 67.1951 139.488 65.4671 133.984 65.4671C125.536 65.4671 117.92 69.3711 111.136 77.1791C104.352 84.9871 99.296 94.5871 95.968 105.979C92.64 117.371 90.976 129.147 90.976 141.307C90.976 157.691 94.176 170.107 100.576 178.555C106.976 187.003 115.168 191.227 125.152 191.227C131.424 191.227 137.952 189.115 144.736 184.891C151.52 180.667 157.984 174.651 164.128 166.843Z" fill="#94A3B8"/>
<g clip-path="url(#clip1_3037_67)">
<path d="M211.416 44.0555L209.818 50.0185M213.599 47.8359L207.636 46.2381M181.972 58.5348L181.173 61.5163M183.063 60.425L180.082 59.6261M191.422 58.6702C191.427 58.1186 191.284 57.5758 191.008 57.0981C190.732 56.6204 190.334 56.2253 189.853 55.954L181.34 51.1451C181.195 51.059 181.083 50.9282 181.02 50.7726C180.957 50.617 180.946 50.445 180.99 50.2828C181.033 50.1206 181.128 49.977 181.261 49.8738C181.393 49.7706 181.556 49.7134 181.724 49.711L191.502 49.8017C192.053 49.8069 192.596 49.6644 193.073 49.3888C193.551 49.1133 193.946 48.7149 194.218 48.235L199.027 39.7212C199.112 39.5763 199.243 39.4634 199.399 39.3999C199.555 39.3363 199.728 39.3254 199.89 39.369C200.053 39.4126 200.197 39.5082 200.3 39.6413C200.403 39.7743 200.46 39.9375 200.462 40.1059L200.368 49.8831C200.363 50.4347 200.506 50.9775 200.782 51.4552C201.058 51.9329 201.456 52.328 201.937 52.5993L210.451 57.4068C210.597 57.4923 210.71 57.6232 210.774 57.7795C210.838 57.9358 210.849 58.1088 210.806 58.2719C210.762 58.4351 210.666 58.5794 210.532 58.6827C210.399 58.786 210.235 58.8426 210.066 58.8438L200.289 58.7501C199.737 58.745 199.194 58.8877 198.716 59.1635C198.239 59.4393 197.844 59.8381 197.572 60.3183L192.763 68.8321C192.678 68.977 192.547 69.0899 192.391 69.1535C192.235 69.2171 192.062 69.2279 191.9 69.1843C191.737 69.1407 191.593 69.0451 191.49 68.9121C191.387 68.779 191.33 68.6159 191.328 68.4475L191.422 58.6702Z" stroke="#94A3B8" stroke-width="3.05176" stroke-linecap="round" stroke-linejoin="round"/>
</g>
<defs>
<clipPath id="clip0_3037_67">
<rect x="181.477" y="32" width="36.6211" height="36.6211" rx="3.05176" transform="rotate(15 181.477 32)" fill="white"/>
</clipPath>
<clipPath id="clip1_3037_67">
<rect x="182.801" y="31.5938" width="37.04" height="37.04" rx="3.05176" transform="rotate(15 182.801 31.5938)" fill="white"/>
</clipPath>
</defs>
</svg>
