<svg width="128" height="128" viewBox="0 0 128 128" fill="none" xmlns="http://www.w3.org/2000/svg">
<rect width="128" height="128" rx="12" fill="url(#paint0_linear_3029_144)"/>
<g clip-path="url(#clip0_3029_144)">
<path d="M104.887 22.1584L104.097 25.1061M105.966 24.0272L103.018 23.2373M90.3311 29.3161L89.9362 30.79M90.8706 30.2505L89.3967 29.8556M95.0025 29.3831C95.005 29.1104 94.9345 28.842 94.7981 28.6059C94.6618 28.3697 94.4647 28.1745 94.2273 28.0403L90.0185 25.663C89.9472 25.6205 89.8918 25.5558 89.8606 25.4789C89.8294 25.402 89.8241 25.317 89.8456 25.2368C89.8671 25.1566 89.9142 25.0856 89.9797 25.0346C90.0451 24.9836 90.1255 24.9553 90.2085 24.9541L95.0422 24.999C95.3148 25.0015 95.583 24.9311 95.8191 24.7949C96.0552 24.6587 96.2505 24.4617 96.3847 24.2245L98.762 20.0157C98.8044 19.9441 98.8691 19.8883 98.9462 19.8569C99.0233 19.8254 99.1086 19.8201 99.189 19.8416C99.2694 19.8632 99.3406 19.9104 99.3916 19.9762C99.4426 20.042 99.4708 20.1226 99.4717 20.2059L99.4254 25.0392C99.4228 25.3119 99.4934 25.5802 99.6297 25.8164C99.7661 26.0525 99.9632 26.2478 100.201 26.3819L104.41 28.7585C104.482 28.8008 104.538 28.8655 104.569 28.9427C104.601 29.02 104.606 29.1055 104.585 29.1862C104.563 29.2668 104.516 29.3382 104.45 29.3892C104.384 29.4403 104.303 29.4683 104.219 29.4689L99.3859 29.4226C99.1132 29.42 98.8448 29.4906 98.6087 29.6269C98.3726 29.7633 98.1773 29.9604 98.0431 30.1978L95.6658 34.4066C95.6234 34.4782 95.5587 34.534 95.4816 34.5654C95.4046 34.5968 95.3193 34.6022 95.2389 34.5806C95.1585 34.5591 95.0873 34.5118 95.0363 34.4461C94.9852 34.3803 94.9571 34.2996 94.9562 34.2164L95.0025 29.3831Z" stroke="#475569" stroke-width="1.52588" stroke-linecap="round" stroke-linejoin="round"/>
</g>
<path d="M78.736 89.68C81.3013 90.2347 82.584 91.5173 82.584 93.528C79.9493 98.312 76.7253 102.195 72.912 105.176C69.0987 108.157 65.4933 110.133 62.096 111.104C58.6987 112.075 55.1973 112.56 51.592 112.56C43.4107 112.56 36.5467 109.44 31 103.2C25.4533 96.96 22.68 87.8773 22.68 75.952C22.68 62.64 26.112 51.304 32.976 41.944C36.3733 37.4373 40.7067 33.8667 45.976 31.232C51.3147 28.528 57.4507 27.176 64.384 27.176C71.3867 27.176 76.6907 29.048 80.296 32.792C83.9707 36.4667 85.808 40.8347 85.808 45.896C85.808 50.888 84.4213 54.9787 81.648 58.168C78.8747 61.288 75.2693 62.848 70.832 62.848C69.3067 62.848 67.5387 62.5707 65.528 62.016C66.984 60.2133 68.2667 57.648 69.376 54.32C70.4853 50.992 71.04 47.8373 71.04 44.856C71.04 41.8747 70.3467 39.448 68.96 37.576C67.5733 35.704 65.3893 34.768 62.408 34.768C57.832 34.768 53.7067 36.8827 50.032 41.112C46.3573 45.3413 43.6187 50.5413 41.816 56.712C40.0133 62.8827 39.112 69.2613 39.112 75.848C39.112 84.7227 40.8453 91.448 44.312 96.024C47.7787 100.6 52.216 102.888 57.624 102.888C61.0213 102.888 64.5573 101.744 68.232 99.456C71.9067 97.168 75.408 93.9093 78.736 89.68Z" fill="#334155"/>
<path d="M82.064 83.9216C84.432 84.4336 85.616 85.6176 85.616 87.4736C83.184 91.8896 80.208 95.4736 76.688 98.2256C73.168 100.978 69.84 102.802 66.704 103.698C63.568 104.594 60.336 105.042 57.008 105.042C49.456 105.042 43.12 102.162 38 96.4016C32.88 90.6416 30.32 82.2576 30.32 71.2496C30.32 58.9616 33.488 48.4976 39.824 39.8576C42.96 35.6976 46.96 32.4016 51.824 29.9696C56.752 27.4736 62.416 26.2256 68.816 26.2256C75.28 26.2256 80.176 27.9536 83.504 31.4096C86.896 34.8016 88.592 38.8336 88.592 43.5056C88.592 48.1136 87.312 51.8896 84.752 54.8336C82.192 57.7136 78.864 59.1536 74.768 59.1536C73.36 59.1536 71.728 58.8976 69.872 58.3856C71.216 56.7216 72.4 54.3536 73.424 51.2816C74.448 48.2096 74.96 45.2976 74.96 42.5456C74.96 39.7936 74.32 37.5536 73.04 35.8256C71.76 34.0976 69.744 33.2336 66.992 33.2336C62.768 33.2336 58.96 35.1856 55.568 39.0896C52.176 42.9936 49.648 47.7936 47.984 53.4896C46.32 59.1856 45.488 65.0736 45.488 71.1536C45.488 79.3456 47.088 85.5536 50.288 89.7776C53.488 94.0016 57.584 96.1136 62.576 96.1136C65.712 96.1136 68.976 95.0576 72.368 92.9456C75.76 90.8336 78.992 87.8256 82.064 83.9216Z" fill="#94A3B8"/>
<g clip-path="url(#clip1_3029_144)">
<path d="M105.708 22.0278L104.909 25.0092M106.799 23.9179L103.818 23.1191M90.9859 29.2674L90.5865 30.7582M91.5316 30.2125L90.0408 29.8131M95.7108 29.3351C95.7134 29.0593 95.642 28.7879 95.5041 28.549C95.3662 28.3102 95.1668 28.1127 94.9267 27.977L90.6698 25.5725C90.5977 25.5295 90.5416 25.4641 90.5101 25.3863C90.4785 25.3085 90.4732 25.2225 90.4949 25.1414C90.5166 25.0603 90.5642 24.9885 90.6305 24.9369C90.6967 24.8853 90.778 24.8567 90.8619 24.8555L95.7509 24.9009C96.0266 24.9035 96.2979 24.8322 96.5367 24.6944C96.7755 24.5567 96.9731 24.3575 97.1088 24.1175L99.5133 19.8606C99.5562 19.7881 99.6216 19.7317 99.6996 19.6999C99.7776 19.6681 99.8638 19.6627 99.9452 19.6845C100.026 19.7063 100.098 19.7541 100.15 19.8206C100.202 19.8871 100.23 19.9687 100.231 20.0529L100.184 24.9416C100.182 25.2173 100.253 25.4888 100.391 25.7276C100.529 25.9665 100.728 26.164 100.968 26.2997L105.225 28.7034C105.298 28.7461 105.355 28.8116 105.387 28.8898C105.419 28.9679 105.425 29.0544 105.403 29.136C105.381 29.2175 105.333 29.2897 105.266 29.3413C105.199 29.393 105.117 29.4213 105.033 29.4219L100.144 29.3751C99.8685 29.3725 99.5971 29.4439 99.3582 29.5818C99.1194 29.7197 98.9218 29.919 98.7862 30.1592L96.3817 34.4161C96.3388 34.4885 96.2734 34.5449 96.1954 34.5767C96.1174 34.6085 96.0312 34.6139 95.9499 34.5921C95.8685 34.5704 95.7966 34.5225 95.7449 34.456C95.6933 34.3895 95.6648 34.3079 95.6639 34.2237L95.7108 29.3351Z" stroke="#94A3B8" stroke-width="1.52588" stroke-linecap="round" stroke-linejoin="round"/>
</g>
<defs>
<linearGradient id="paint0_linear_3029_144" x1="3.5" y1="1.75" x2="128" y2="128" gradientUnits="userSpaceOnUse">
<stop stop-color="#F8FAFC"/>
<stop offset="1" stop-color="#CBD5E1"/>
</linearGradient>
<clipPath id="clip0_3029_144">
<rect x="90.7383" y="16" width="18.3105" height="18.3105" rx="1.52588" transform="rotate(15 90.7383 16)" fill="white"/>
</clipPath>
<clipPath id="clip1_3029_144">
<rect x="91.4004" y="15.7969" width="18.52" height="18.52" rx="1.52588" transform="rotate(15 91.4004 15.7969)" fill="white"/>
</clipPath>
</defs>
</svg>
